<?xml version="1.0" encoding="UTF-8" standalone="no"?>
<!-- Created with Inkscape (http://www.inkscape.org/) -->

<svg
   width="148.34032mm"
   height="152.07999mm"
   viewBox="0 0 148.34032 152.07999"
   version="1.1"
   id="svg1"
   xml:space="preserve"
   xmlns="http://www.w3.org/2000/svg"
   xmlns:svg="http://www.w3.org/2000/svg"><defs
     id="defs1" /><g
     id="layer3"
     style="mix-blend-mode:normal"
     transform="translate(-27.839779,-29.501862)"><rect
       style="fill:#fffff6;fill-opacity:1;stroke:none;stroke-width:0.600001;stroke-linejoin:bevel;stroke-dasharray:none;stroke-opacity:1"
       id="rect1"
       width="210.39948"
       height="296.58142"
       x="0.48146331"
       y="1.6093742"
       rx="22.457035"
       ry="0.76921785" /></g><g
     id="layer5"
     style="display:none"
     transform="translate(-27.839779,-29.501862)"><g
       id="g83"
       transform="translate(5.2632714,-49.078485)"><g
         id="g82"><g
           id="g81"
           transform="translate(-8.9958338)"><path
             d="m 167.63059,237.97876 c -1.09733,0 -1.99375,0.0904 -2.68872,0.2713 -0.69497,0.18087 -1.22534,0.48228 -1.59112,0.90433 -0.36578,0.42204 -0.6216,0.99473 -0.76791,1.71825 -0.10973,0.69336 -0.16485,1.56745 -0.16485,2.62257 v 16.50546 c 0,1.02498 0.0551,1.89906 0.16485,2.62258 0.14631,0.69336 0.38394,1.25123 0.71314,1.67328 0.36577,0.42205 0.87793,0.73827 1.53634,0.9493 0.6584,0.18088 1.5179,0.2713 2.57865,0.2713 1.06076,0 1.93846,-0.10523 2.63343,-0.31626 0.69497,-0.21103 1.28045,-0.58806 1.75597,-1.13068 v 8.13955 h 7.90081 v -34.00516 h -7.29723 v 1.22112 c -0.43894,-0.51249 -1.04261,-0.87419 -1.81075,-1.08521 -0.73155,-0.24118 -1.71896,-0.36173 -2.96261,-0.36173 z m 3.29179,5.78776 c 0.29263,0 0.51205,0.0455 0.65836,0.13591 0.18289,0.0904 0.34772,0.25595 0.49403,0.49712 v 14.69678 c -0.14631,0.24118 -0.31114,0.40669 -0.49403,0.49713 -0.14631,0.0904 -0.36573,0.13591 -0.65836,0.13591 -0.40235,0 -0.65869,-0.0756 -0.76842,-0.22635 -0.0731,-0.15072 -0.10956,-0.40666 -0.10956,-0.76843 v -13.9733 c 0,-0.36176 0.0364,-0.6177 0.10956,-0.76843 0.10973,-0.15073 0.36607,-0.22634 0.76842,-0.22634 z"
             style="font-weight:bold;font-size:25.4px;line-height:1;font-family:'Kenyan Coffee';-inkscape-font-specification:'Kenyan Coffee Bold';letter-spacing:0.264583px;fill:#f6b901;fill-opacity:1;stroke-width:8.76774;stroke-linejoin:bevel;paint-order:stroke fill markers"
             id="path80" /><path
             d="m 149.50147,237.75241 c -1.68258,0 -3.05424,0.0603 -4.115,0.18087 -1.06075,0.12059 -1.90205,0.37705 -2.52387,0.76895 -0.58524,0.3919 -0.98769,0.97991 -1.20716,1.76371 -0.21947,0.75368 -0.32918,1.76313 -0.32918,3.02927 v 3.21066 h 7.1329 v -2.48719 c 0,-0.3919 0.0546,-0.64784 0.16433,-0.76842 0.10974,-0.15074 0.38428,-0.22635 0.8232,-0.22635 0.47552,0 0.76825,0.0756 0.87798,0.22635 0.10974,0.12058 0.16434,0.37652 0.16434,0.76842 v 5.15525 c -0.25605,-0.0603 -0.54827,-0.0904 -0.87747,-0.0904 -0.32919,-0.0301 -0.78676,-0.0455 -1.37201,-0.0455 h -1.53634 c -2.01177,0 -3.41983,0.37702 -4.22455,1.13068 -0.76813,0.75367 -1.15238,1.9445 -1.15238,3.57239 v 6.5567 c 0,1.23602 0.10971,2.21585 0.32918,2.93936 0.25604,0.69337 0.69541,1.2211 1.31723,1.58285 0.62182,0.33163 1.46312,0.52729 2.52388,0.58756 1.09733,0.0904 2.48719,0.13591 4.16977,0.13591 0.69498,0 1.46296,-0.0153 2.30425,-0.0455 0.84128,0 1.66438,-0.0148 2.4691,-0.045 0.80471,-0.0302 1.5363,-0.0756 2.1947,-0.13591 0.6584,-0.0603 1.15185,-0.13539 1.48104,-0.22583 v -21.79609 c 0,-1.26614 -0.12791,-2.27559 -0.38395,-3.02927 -0.21947,-0.75366 -0.64013,-1.32686 -1.26194,-1.71876 -0.62183,-0.42205 -1.49953,-0.69331 -2.63343,-0.8139 -1.09734,-0.12059 -2.54231,-0.18087 -4.33462,-0.18087 z m -0.0548,16.00781 c 0.3292,0 0.67654,0.0302 1.04232,0.0904 v 6.46627 c -0.21947,0.0603 -0.54861,0.0904 -0.98754,0.0904 -0.47551,0 -0.76824,-0.0603 -0.87798,-0.18087 -0.10974,-0.15073 -0.16433,-0.42199 -0.16433,-0.8139 v -4.6576 c 0,-0.3919 0.0546,-0.64785 0.16433,-0.76843 0.10974,-0.15073 0.38428,-0.22634 0.8232,-0.22634 z"
             style="font-weight:bold;font-size:25.4px;line-height:1;font-family:'Kenyan Coffee';-inkscape-font-specification:'Kenyan Coffee Bold';letter-spacing:0.264583px;fill:#f6b901;fill-opacity:1;stroke-width:8.76774;stroke-linejoin:bevel;paint-order:stroke fill markers"
             id="path79" /><path
             style="font-weight:bold;font-size:25.4px;line-height:1;font-family:'Kenyan Coffee';-inkscape-font-specification:'Kenyan Coffee Bold';letter-spacing:0.264583px;fill:#f6b901;fill-opacity:1;stroke-width:8.76774;stroke-linejoin:bevel;paint-order:stroke fill markers"
             d="m 136.85942,265.29122 h -6.96804 v -21.9315 h -0.21948 l -2.68846,21.9315 h -7.29726 l -2.74333,-22.15758 h -0.21946 v 22.15758 h -6.96806 v -35.72347 h 11.74145 q 0.27434,2.57752 0.4938,5.01938 0.27434,2.39663 0.43894,4.74806 0.21946,2.35141 0.38406,4.74805 0.21948,2.39664 0.38406,4.92894 h 0.21948 q 0.1646,-2.5323 0.3292,-4.92894 0.16459,-2.39664 0.38406,-4.74805 0.21946,-2.35143 0.43894,-4.74806 0.27432,-2.44186 0.54866,-5.01938 h 11.74144 z"
             id="path73" /></g><g
           id="g80"><path
             style="font-weight:bold;font-size:25.4px;line-height:1;font-family:'Kenyan Coffee';-inkscape-font-specification:'Kenyan Coffee Bold';letter-spacing:0.264583px;fill:#375c76;fill-opacity:1;stroke-width:8.76774;stroke-linejoin:bevel;paint-order:stroke fill markers"
             d="m 94.67623,265.29122 h -7.90079 v -20.52968 q 0,-0.54264 -0.1646,-0.76874 -0.1097,-0.2261 -0.71326,-0.2261 -0.54867,0 -0.823,0.18088 -0.21946,0.13566 -0.38406,0.4522 v 20.89144 h -7.845927 v -27.08653 h 7.297247 v 1.22093 q 0.60354,-0.76873 1.75574,-1.08526 1.1522,-0.36177 3.01766,-0.36177 1.646,0 2.74333,0.27133 1.1522,0.27131 1.8106,0.90439 0.65839,0.63306 0.93273,1.71834 0.27433,1.04005 0.27433,2.62273 z"
             id="path72" /><path
             d="m 64.092729,237.75241 c -1.79231,0 -3.255486,0.0603 -4.389396,0.18087 -1.097331,0.12058 -1.956833,0.39185 -2.578654,0.8139 -0.621822,0.39191 -1.042473,0.96459 -1.261939,1.71825 -0.219466,0.75366 -0.329179,1.76364 -0.329179,3.02978 v 16.50546 c 0,1.26614 0.109713,2.27611 0.329179,3.02979 0.219466,0.75365 0.640117,1.34116 1.261939,1.7632 0.621821,0.39191 1.481323,0.64836 2.578654,0.76894 1.13391,0.12058 2.597086,0.18087 4.389396,0.18087 1.682575,0 3.05424,-0.0603 4.114994,-0.18087 1.060755,-0.12058 1.883857,-0.37703 2.4691,-0.76894 0.621823,-0.3919 1.042472,-0.96459 1.261938,-1.71824 0.256042,-0.78382 0.383956,-1.80861 0.383956,-3.07475 v -3.93413 h -7.132898 v 3.16518 c 0,0.3919 -0.0546,0.66317 -0.164331,0.81391 -0.109732,0.12058 -0.402472,0.18086 -0.877982,0.18086 -0.438934,0 -0.712956,-0.0603 -0.822689,-0.18086 -0.109733,-0.15074 -0.164848,-0.42201 -0.164848,-0.81391 v -5.38106 h 9.162748 v -10.35545 c 0,-1.26614 -0.127914,-2.27612 -0.383956,-3.02978 -0.219466,-0.78381 -0.640115,-1.3713 -1.261938,-1.7632 -0.585243,-0.3919 -1.408345,-0.64837 -2.4691,-0.76895 -1.060754,-0.12058 -2.432419,-0.18087 -4.114994,-0.18087 z m 0.05478,5.65237 c 0.47551,0 0.76825,0.0756 0.877982,0.22634 0.109734,0.12059 0.164331,0.37653 0.164331,0.76843 v 4.47673 h -2.02985 v -4.47673 c 0,-0.3919 0.05512,-0.64784 0.164848,-0.76843 0.109733,-0.15072 0.383755,-0.22634 0.822689,-0.22634 z"
             style="font-weight:bold;font-size:25.4px;line-height:1;font-family:'Kenyan Coffee';-inkscape-font-specification:'Kenyan Coffee Bold';letter-spacing:0.264583px;fill:#375c76;fill-opacity:1;stroke-width:8.76774;stroke-linejoin:bevel;paint-order:stroke fill markers"
             id="path78" /><path
             style="font-weight:bold;font-size:25.4px;line-height:1;font-family:'Kenyan Coffee';-inkscape-font-specification:'Kenyan Coffee Bold';letter-spacing:0.264583px;fill:#375c76;fill-opacity:1;stroke-width:8.76774;stroke-linejoin:bevel;paint-order:stroke fill markers"
             d="M 51.066498,265.29122 H 44.09844 v -21.9315 h -0.219466 l -2.688462,21.9315 h -7.297257 l -2.74333,-22.15758 h -0.219467 v 22.15758 H 23.9624 v -35.72347 h 11.741452 q 0.274334,2.57752 0.4938,5.01938 0.274332,2.39663 0.438933,4.74806 0.219465,2.35141 0.384065,4.74805 0.219467,2.39664 0.384066,4.92894 h 0.219468 q 0.164599,-2.5323 0.329199,-4.92894 0.164599,-2.39664 0.384066,-4.74805 0.219467,-2.35143 0.438934,-4.74806 0.274332,-2.44186 0.548666,-5.01938 h 11.741449 z"
             id="text63" /></g></g><text
         xml:space="preserve"
         style="font-style:normal;font-variant:normal;font-weight:bold;font-stretch:normal;font-size:14.1111px;line-height:1;font-family:'Kenyan Coffee';-inkscape-font-specification:'Kenyan Coffee Bold';letter-spacing:0.264583px;writing-mode:lr-tb;direction:ltr;fill:#375c76;fill-opacity:1;stroke:none;stroke-width:4.47101;stroke-linejoin:bevel;stroke-dasharray:none;stroke-opacity:1;paint-order:stroke fill markers"
         x="48.885334"
         y="283.15613"
         id="text82-5"><tspan
           id="tspan82-4"
           style="font-size:14.1111px;fill:#375c76;fill-opacity:1;stroke-width:4.471"
           x="48.885334"
           y="283.15613">Máquinas Blockeras</tspan></text><rect
         style="fill:#f6b901;fill-opacity:1;stroke:none;stroke-width:2.90127;stroke-linejoin:bevel;stroke-dasharray:none;stroke-opacity:1;paint-order:stroke fill markers"
         id="rect82"
         width="20.424444"
         height="1.9402009"
         x="23.9624"
         y="277.58585"
         rx="0.010685077"
         ry="0.024390835" /><rect
         style="fill:#f6b901;fill-opacity:1;stroke:none;stroke-width:2.90127;stroke-linejoin:bevel;stroke-dasharray:none;stroke-opacity:1;paint-order:stroke fill markers"
         id="rect82-9"
         width="20.424444"
         height="1.9402009"
         x="150.2809"
         y="277.58585"
         rx="0.010685077"
         ry="0.024390835" /></g></g><g
     id="layer1"
     transform="translate(-27.839779,-29.501862)"><g
       id="g12"><g
         id="g11"><g
           id="g23"
           transform="translate(-30.824393,-7.614977)"><path
             d="m 128.31719,46.889434 -2.42982,6.345865 a 56.940578,56.456966 0 0 0 -10.79211,2.391587 h -5.1e-4 l -4.57544,-4.428155 -9.85934,5.228615 0.98443,5.61826 a 56.940578,56.456966 0 0 0 -8.362278,6.62596 l -5.828068,-2.18127 -6.95048,8.73074 3.419946,5.17074 a 56.940578,56.456966 0 0 0 -4.440556,9.19634 l -6.49056,0.5085 -2.609659,10.850504 5.735567,3.51813 a 56.940578,56.456966 0 0 0 -0.206706,4.80281 56.940578,56.456966 0 0 0 0.272852,5.51904 l -4.966105,3.20032 2.850472,10.78953 5.465299,0.30592 a 56.940578,56.456966 0 0 0 4.686536,9.55084 l -2.683557,4.79454 7.577315,8.1933 4.051432,-1.86914 a 56.940578,56.456966 0 0 0 13.55318,9.67486 l 2.8453,-7.79022 a 48.183117,47.773888 0 0 1 -25.087872,-41.92819 48.183117,47.773888 0 0 1 48.183112,-47.773834 48.183117,47.773888 0 0 1 48.18311,47.773834 48.183117,47.773888 0 0 1 -21.5098,39.78569 l 2.40606,8.42584 a 56.940578,56.456966 0 0 0 11.18433,-8.5416 l 5.30717,2.27738 7.35407,-8.3938 -3.42666,-5.75417 a 56.940578,56.456966 0 0 0 4.22454,-8.99429 l 6.46524,0.092 3.59927,-10.5637 -6.77634,-5.07204 a 56.940578,56.456966 0 0 0 0.12248,-3.7021 56.940578,56.456966 0 0 0 -0.20877,-4.8302 l 6.87606,-3.92585 -2.26808,-10.926994 -8.32455,-0.91571 a 56.940578,56.456966 0 0 0 -3.32176,-6.96391 l 4.1031,-6.58875 -7.18715,-8.53798 -6.48436,2.63188 a 56.940578,56.456966 0 0 0 -7.40782,-6.14949 l -0.51728,3.81113 0.51676,-3.81113 0.98341,-7.24762 -10.05417,-4.843631 -4.80332,5.022431 a 56.940578,56.456966 0 0 0 -10.63708,-2.59157 l -1.59577,-5.936074 z"
             style="fill:#375c76;fill-opacity:1;stroke-width:8.204;stroke-linejoin:bevel"
             id="path19" /><g
             id="g22"
             transform="translate(51.258965,0.59145848)"><path
               d="m 85.105283,102.55164 c 0.933595,1.92653 2.022826,4.18626 3.184302,6.6089 l 1.490348,3.10834 c 0.50034,1.04362 0.985432,2.05763 1.449007,3.02876 l 8.88048,-13.43988 1.2698,32.38756 h 14.99444 V 79.355129 H 96.230186 Z"
               style="font-weight:bold;font-size:79.7003px;line-height:1;-inkscape-font-specification:'sans-serif Bold';letter-spacing:9.31497px;fill:#f6b901;fill-opacity:1;stroke-width:1.57277;stroke-linejoin:bevel"
               id="path22" /><path
               d="m 47.951478,79.355129 v 54.890191 l 16.164482,-0.28218 v -32.24647 l 13.041488,21.97735 h 10.051583 l 1.063501,-2.22157 c -0.96314,-1.98623 -2.101313,-4.34817 -3.319694,-6.8895 l -1.490349,-3.10834 c -0.45296,-0.9448 -0.893385,-1.86532 -1.316715,-2.75177 l -0.0036,0.008 L 68.13631,79.355379 Z"
               style="font-weight:bold;font-size:79.7003px;line-height:1;-inkscape-font-specification:'sans-serif Bold';letter-spacing:9.31497px;fill:#375c76;fill-opacity:1;stroke-width:1.57277;stroke-linejoin:bevel"
               id="path21" /></g></g><g
           id="g10"
           transform="translate(0.45988599,0.45988629)"><path
             d="M 75.577191,144.21762 99.045446,157.35563 130.73505,142.41624 107.2668,129.27823 Z"
             style="fill:#b9b9b9;fill-opacity:1;fill-rule:evenodd;stroke:none;stroke-width:4.471;stroke-linejoin:round;stroke-dasharray:none;stroke-opacity:1;paint-order:stroke fill markers"
             id="path8" /><path
             d="m 99.045446,157.35563 v 17.69868 l 31.689604,-14.93939 v -17.69868 z"
             style="fill:#606060;fill-opacity:1;fill-rule:evenodd;stroke:none;stroke-width:4.471;stroke-linejoin:round;stroke-dasharray:none;stroke-opacity:1;paint-order:stroke fill markers"
             id="path9" /><path
             d="m 75.577191,144.21762 23.468255,13.13801 v 17.69868 L 75.577191,161.9163 Z"
             style="fill:#737373;fill-opacity:1;fill-rule:evenodd;stroke:none;stroke-width:4.471;stroke-linejoin:round;stroke-dasharray:none;stroke-opacity:1;paint-order:stroke fill markers"
             id="path10" /><g
             id="g2"><path
               d="m 94.936115,151.62277 v -11.90425 l -11.811058,5.08944 z"
               style="fill:#606060;fill-opacity:1;stroke-width:5.07063;stroke-linejoin:bevel;paint-order:stroke fill markers"
               id="path61" /><path
               d="m 94.934833,139.71454 v 11.92124 l 4.012234,2.31497 11.804023,-5.6245 z"
               style="fill:#737373;fill-opacity:1;stroke-width:5.07063;stroke-linejoin:bevel;paint-order:stroke fill markers"
               id="path59" /></g><g
             id="g1"><path
               d="m 110.99042,145.53932 -2.65347,-12.1319 -9.87548,4.95499 z"
               style="fill:#606060;fill-opacity:1;stroke-width:5.07063;stroke-linejoin:bevel;paint-order:stroke fill markers"
               id="path61-6" /><path
               d="m 108.308,133.40668 2.6812,12.13646 2.10397,1.17835 10.44333,-4.50509 z"
               style="fill:#737373;fill-opacity:1;stroke-width:5.07063;stroke-linejoin:bevel;paint-order:stroke fill markers"
               id="path59-8" /></g></g></g><rect
         style="fill:none;stroke:none;stroke-width:3.01578;stroke-linejoin:bevel"
         id="rect5"
         width="148.34032"
         height="152.08"
         x="27.839779"
         y="29.50186"
         rx="20.556826"
         ry="0.79529303" /></g></g></svg>
